<?xml version="1.0" encoding="UTF-8"?><svg id="Layer_2" xmlns="http://www.w3.org/2000/svg" viewBox="0 0 208.49 35.5"><defs><style>.cls-1{fill:#231f20;}</style></defs><g id="Layer_1-2"><g><path class="cls-1" d="M0,34.95V.55H5.16V5.92c1.24-1.65,2.75-3.05,4.54-4.2,1.79-1.15,4.08-1.72,6.88-1.72,2.38,0,4.62,.56,6.71,1.69,2.09,1.12,3.78,2.8,5.09,5.02,1.31,2.23,1.96,4.97,1.96,8.22v20.02h-5.16V15.07c0-3.12-.89-5.63-2.68-7.53-1.79-1.9-4.11-2.86-6.95-2.86-1.93,0-3.67,.44-5.23,1.31-1.56,.87-2.81,2.1-3.75,3.68-.94,1.58-1.41,3.41-1.41,5.47v19.82H0Z"/><path class="cls-1" d="M54.22,35.5c-3.49,0-6.54-.79-9.15-2.37-2.61-1.58-4.64-3.73-6.09-6.43-1.44-2.71-2.17-5.69-2.17-8.95s.69-6.3,2.06-8.98c1.38-2.68,3.35-4.82,5.92-6.4,2.57-1.58,5.6-2.37,9.08-2.37s6.57,.79,9.12,2.37,4.51,3.72,5.88,6.4c1.38,2.68,2.06,5.68,2.06,8.98v2.06h-28.83c.28,2.02,.93,3.87,1.96,5.54,1.03,1.67,2.42,3,4.16,3.99,1.74,.99,3.76,1.48,6.06,1.48,2.43,0,4.47-.54,6.12-1.62,1.65-1.08,2.94-2.47,3.85-4.16h5.64c-1.19,3.07-3.09,5.58-5.68,7.53-2.59,1.95-5.93,2.92-10.01,2.92Zm-12.04-20.5h23.39c-.46-2.94-1.7-5.39-3.72-7.36-2.02-1.97-4.68-2.96-7.98-2.96s-5.95,.99-7.95,2.96c-2,1.97-3.25,4.43-3.75,7.36Z"/><path class="cls-1" d="M92.06,35.5c-3.44,0-6.42-.79-8.94-2.37-2.52-1.58-4.48-3.73-5.88-6.43-1.4-2.71-2.1-5.69-2.1-8.95s.7-6.3,2.1-8.98c1.4-2.68,3.36-4.82,5.88-6.4,2.52-1.58,5.5-2.37,8.94-2.37,4.08,0,7.56,1.06,10.42,3.17,2.87,2.11,4.8,4.84,5.81,8.19h-5.57c-.78-1.97-2.03-3.58-3.75-4.82-1.72-1.24-3.8-1.86-6.23-1.86s-4.73,.6-6.61,1.79c-1.88,1.19-3.33,2.78-4.33,4.75-1.01,1.97-1.51,4.15-1.51,6.54s.5,4.51,1.51,6.5c1.01,2,2.45,3.59,4.33,4.78,1.88,1.19,4.08,1.79,6.61,1.79s4.51-.62,6.23-1.86c1.72-1.24,2.97-2.84,3.75-4.82h5.57c-1.01,3.35-2.95,6.08-5.81,8.19-2.87,2.11-6.34,3.17-10.42,3.17Z"/><path class="cls-1" d="M128.12,35.5c-2.34,0-4.56-.56-6.67-1.69-2.11-1.12-3.82-2.8-5.13-5.02-1.31-2.22-1.96-4.96-1.96-8.22V.55h5.16V20.44c0,3.12,.91,5.63,2.72,7.53,1.81,1.9,4.12,2.86,6.92,2.86,1.93,0,3.67-.45,5.23-1.34s2.81-2.12,3.75-3.68c.94-1.56,1.41-3.37,1.41-5.44V.55h5.16V34.95h-5.16v-5.37c-1.24,1.65-2.75,3.05-4.54,4.2-1.79,1.15-4.08,1.72-6.88,1.72Z"/><path class="cls-1" d="M153.65,34.95V.55h5.16V9.01c.18-.6,.54-1.39,1.07-2.37,.53-.99,1.3-1.98,2.31-2.99,1.01-1.01,2.28-1.87,3.82-2.58,1.54-.71,3.36-1.07,5.47-1.07h.34V5.16h-.62c-2.57,0-4.78,.7-6.64,2.1-1.86,1.4-3.28,3.21-4.27,5.44-.99,2.23-1.48,4.6-1.48,7.12v15.14h-5.16Z"/><path class="cls-1" d="M191.42,35.5c-3.49,0-6.51-.79-9.08-2.37-2.57-1.58-4.54-3.73-5.92-6.43-1.38-2.71-2.06-5.69-2.06-8.95s.69-6.3,2.06-8.98c1.38-2.68,3.35-4.82,5.92-6.4,2.57-1.58,5.6-2.37,9.08-2.37s6.57,.79,9.12,2.37,4.51,3.72,5.88,6.4c1.38,2.68,2.06,5.68,2.06,8.98s-.69,6.24-2.06,8.95c-1.38,2.71-3.34,4.85-5.88,6.43s-5.58,2.37-9.12,2.37Zm0-4.68c2.57,0,4.74-.6,6.5-1.79,1.77-1.19,3.11-2.79,4.03-4.78,.92-2,1.38-4.16,1.38-6.5s-.46-4.56-1.38-6.54c-.92-1.97-2.26-3.55-4.03-4.75-1.77-1.19-3.93-1.79-6.5-1.79s-4.68,.6-6.47,1.79c-1.79,1.19-3.14,2.78-4.06,4.75-.92,1.97-1.38,4.15-1.38,6.54s.46,4.51,1.38,6.5c.92,2,2.27,3.59,4.06,4.78,1.79,1.19,3.95,1.79,6.47,1.79Z"/></g></g></svg>